name analog
datacolumns 19
datarows 23
range 0.6315000000000001 0.6425
endheader
time	ground_force_vx	ground_force_vy	ground_force_vz	ground_force_px	ground_force_py	ground_force_pz	l_ground_force_vx	l_ground_force_vy	l_ground_force_vz	l_ground_force_px	l_ground_force_py	l_ground_force_pz	ground_torque_x	ground_torque_y	ground_torque_z	l_ground_torque_x	l_ground_torque_y	l_ground_torque_z
0.6315000000000001	-0.0	-0.0	-0.0	-0.0	-0.0	-0.0	-3.977195262908936	6.116283893585205	-747.8828125	-0.0	-0.0	-0.0	-0.0	-0.0	-0.0	234400.5625	-14505.146484375	-1837.97265625
0.632	-0.0	-0.0	-0.0	-0.0	-0.0	-0.0	-3.629719495773315	6.06463623046875	-744.7695922851562	-0.0	-0.0	-0.0	-0.0	-0.0	-0.0	233647.546875	-14253.9970703125	-1761.1475830078125
0.6325000000000001	-0.0	-0.0	-0.0	-0.0	-0.0	-0.0	-3.4597206115722656	6.094196319580078	-738.9222412109375	-0.0	-0.0	-0.0	-0.0	-0.0	-0.0	232755.875	-13989.416015625	-1802.935302734375
0.633	-0.0	-0.0	-0.0	-0.0	-0.0	-0.0	-2.1515517234802246	6.10912561416626	-735.3133544921875	-0.0	-0.0	-0.0	-0.0	-0.0	-0.0	231735.203125	-13883.703125	-1515.3516845703125
0.6335000000000001	-0.0	-0.0	-0.0	-0.0	-0.0	-0.0	-1.2569947242736816	6.190006732940674	-733.8575439453125	-0.0	-0.0	-0.0	-0.0	-0.0	-0.0	231162.453125	-13999.2275390625	-1396.0467529296875
0.634	-0.0	-0.0	-0.0	-0.0	-0.0	-0.0	-0.5625020265579224	6.124300956726074	-729.6971435546875	-0.0	-0.0	-0.0	-0.0	-0.0	-0.0	230640.5625	-14151.1708984375	-1074.333251953125
0.6345000000000001	-0.0	-0.0	-0.0	-0.0	-0.0	-0.0	0.4207634329795837	5.372495651245117	-726.295166015625	-0.0	-0.0	-0.0	-0.0	-0.0	-0.0	229838.4375	-14209.00390625	-912.8407592773438
0.635	-0.0	-0.0	-0.0	-0.0	-0.0	-0.0	1.226702094078064	4.8349199295043945	-723.8512573242188	-0.0	-0.0	-0.0	-0.0	-0.0	-0.0	229079.9375	-14106.8505859375	-868.3547973632812
0.6355000000000001	-0.0	-0.0	-0.0	-0.0	-0.0	-0.0	1.38872492313385	4.070425987243652	-722.015380859375	-0.0	-0.0	-0.0	-0.0	-0.0	-0.0	228768.0625	-13948.9140625	-865.921875
0.636	-0.0	-0.0	-0.0	-0.0	-0.0	-0.0	2.040348052978516	3.8708229064941406	-719.5711669921875	-0.0	-0.0	-0.0	-0.0	-0.0	-0.0	227936.3125	-14062.84765625	-901.7033081054688
0.6365000000000001	-0.0	-0.0	-0.0	-0.0	-0.0	-0.0	2.7113990783691406	3.920623779296875	-715.7157592773438	-0.0	-0.0	-0.0	-0.0	-0.0	-0.0	227672.546875	-14191.0673828125	-814.7496337890625
0.637	-0.0	-0.0	-0.0	-0.0	-0.0	-0.0	3.0394604206085205	4.231710433959961	-717.0352172851562	-0.0	-0.0	-0.0	-0.0	-0.0	-0.0	227728.15625	-14155.0546875	-857.0206298828125
0.6375000000000001	-0.0	-0.0	-0.0	-0.0	-0.0	-0.0	3.637142181396485	4.31222677230835	-716.048583984375	-0.0	-0.0	-0.0	-0.0	-0.0	-0.0	228431.890625	-14392.75	-578.1972045898438
0.638	-0.0	-0.0	-0.0	-0.0	-0.0	-0.0	4.242456436157227	4.857692718505859	-717.732421875	-0.0	-0.0	-0.0	-0.0	-0.0	-0.0	229129.140625	-14702.75	-791.4411010742188
0.6385000000000001	-0.0	-0.0	-0.0	-0.0	-0.0	-0.0	4.751046657562256	6.055033206939697	-719.1903686523438	-0.0	-0.0	-0.0	-0.0	-0.0	-0.0	230487.078125	-14917.2392578125	-704.3893432617188
0.639	-0.0	-0.0	-0.0	-0.0	-0.0	-0.0	4.983613014221191	7.034255027770996	-723.573486328125	-0.0	-0.0	-0.0	-0.0	-0.0	-0.0	231768.046875	-15098.541015625	-482.509765625
0.6395000000000001	-0.0	-0.0	-0.0	-0.0	-0.0	-0.0	5.967448711395264	7.6444501876831055	-725.79248046875	-0.0	-0.0	-0.0	-0.0	-0.0	-0.0	232990.15625	-15806.0302734375	-320.1186828613281
0.64	-0.0	-0.0	-0.0	-0.0	-0.0	-0.0	7.072963714599609	8.535477638244629	-729.3150024414062	-0.0	-0.0	-0.0	-0.0	-0.0	-0.0	234300.078125	-15928.8896484375	-170.7859344482422
0.6405	-0.0	-0.0	-0.0	-0.0	-0.0	-0.0	7.709834575653076	9.081195831298828	-731.441162109375	-0.0	-0.0	-0.0	-0.0	-0.0	-0.0	235429.28125	-16014.65234375	29.424604415893555
0.641	-0.0	-0.0	-0.0	-0.0	-0.0	-0.0	8.298606872558594	10.156993865966797	-732.8692626953125	-0.0	-0.0	-0.0	-0.0	-0.0	-0.0	236613.109375	-16156.2001953125	-69.75440979003906
0.6415	-0.0	-0.0	-0.0	-0.0	-0.0	-0.0	8.161392211914062	11.31316089630127	-733.9802856445312	-0.0	-0.0	-0.0	-0.0	-0.0	-0.0	237018.03125	-16189.927734375	237.8956451416016
0.642	-0.0	-0.0	-0.0	-0.0	-0.0	-0.0	8.468056678771973	12.011749267578123	-735.059814453125	-0.0	-0.0	-0.0	-0.0	-0.0	-0.0	237586.3125	-16119.9111328125	168.2366180419922
0.6425	-0.0	-0.0	-0.0	-0.0	-0.0	-0.0	8.637521743774414	12.268606185913086	-734.0128784179688	-0.0	-0.0	-0.0	-0.0	-0.0	-0.0	237511.421875	-16047.3935546875	397.6150207519531
